<svg width="32" height="32" viewBox="0 0 32 32" fill="none" xmlns="http://www.w3.org/2000/svg">
  <!-- Outer octagonal border -->
  <path d="M9.5 2H22.5L30 9.5V22.5L22.5 30H9.5L2 22.5V9.5L9.5 2Z" fill="#1a2332" stroke="#1a2332" stroke-width="1"/>
  
  <!-- Inner octagonal background -->
  <path d="M10.5 4H21.5L27 9.5V20.5L21.5 26H10.5L5 20.5V9.5L10.5 4Z" fill="#e5e7eb"/>
  
  <!-- Stylized S shape -->
  <path d="M12 8C12 7.5 12.5 7 13 7H19C20.5 7 22 8.5 22 10C22 11.5 20.5 13 19 13H17C15.5 13 14 14.5 14 16C14 17.5 15.5 19 17 19H19C19.5 19 20 19.5 20 20C20 20.5 19.5 21 19 21H13C11.5 21 10 19.5 10 18C10 16.5 11.5 15 13 15H15C16.5 15 18 13.5 18 12C18 10.5 16.5 9 15 9H13C12.5 9 12 8.5 12 8Z" fill="#1a2332"/>
</svg>